{"title":"Elysium (2013) CAM XviD - TANGiNA","uid":8809249,"size":1197871104,"categoryP":"video","categoryS":"movies","magnet":"?xt=urn:btih:9876bc4f5b640a660747fe4196e401b5d76c4029&amp;dn=Elysium+%282013%29+CAM+XviD+-+TANGiNA&amp;tr=udp%3A%2F%2Ftracker.openbittorrent.com%3A80&amp;tr=udp%3A%2F%2Fopen.demonii.com%3A1337&amp;tr=udp%3A%2F%2Ftracker.coppersurfer.tk%3A6969&amp;tr=udp%3A%2F%2Fexodus.desync.com%3A6969","seeders":1,"leechers":0,"uploader":"tykoon123","files":-1,"time":1376416894,"description":" &lt;a href=&quot;http://www.beaufortonline.com/wp-content/uploads/2013/07/Elysium.jpg&quot; rel=&quot;nofollow&quot; target=&quot;_NEW&quot;&gt;http://www.beaufortonline.com/wp-content/uploads/2013/07/Elysium.jpg&lt;/a&gt;\n\nInfo:\nGeneral\nComplete name : Elysium.2013.CAM.XviD-TANGiNA \nFormat : AVI\nFormat/Info : Audio Video Interleave\nFile size : 1.11 GiB\nDuration : 1h 36mn\nOverall bit rate : 1 634 Kbps\nWriting application : VirtualDubMod 1.5.10.2 (build 2542/release)\nWriting library : VirtualDubMod build 2542/release\n\nVideo\nID : 0\nFormat : MPEG-4 Visual\nFormat profile : Advanced Simple@L5\nFormat settings, BVOP : 2\nFormat settings, QPel : No\nFormat settings, GMC : No warppoints\nFormat settings, Matrix : Default (H.263)\nCodec ID : XVID\nCodec ID/Hint : XviD\nDuration : 1h 36mn\nBit rate : 1 497 Kbps\nWidth : 720 pixels\nHeight : 264 pixels\nDisplay aspect ratio : 2.727\nFrame rate : 24.000 fps\nColor space : YUV\nChroma subsampling : 4:2:0\nBit depth : 8 bits\nScan type : Progressive\nCompression mode : Lossy\nBits/(Pixel*Frame) : 0.328\nStream size : 1.01 GiB (92%)\nWriting library : XviD 1.2.1 (UTC 2008-12-04)\n\nAudio\nID : 1\nFormat : MPEG Audio\nFormat version : Version 1\nFormat profile : Layer 3\nCodec ID : 55\nCodec ID/Hint : MP3\nDuration : 1h 36mn\nBit rate mode : Constant\nBit rate : 128 Kbps\nChannel(s) : 2 channels\nSampling rate : 44.1 KHz\nCompression mode : Lossy\nStream size : 88.8 MiB (8%)\nAlignment : Split accross interleaves\nInterleave, duration : 42 ms (1.00 video frame)\nInterleave, preload duration : 500 ms\n\n\nSources : Elizium.Rai.ne.na.zemle.2013.D.CAMRip.1400MB/ELYSIUM FULL CAM AUDIO ONLY ENGLISH-NOGRP (THANKS)\n\nScreens here: &lt;a href=&quot;\nhttp://1337x.org/torrent/605949/Elysium-2013-CAM-XviD-TANGiNA/&quot; rel=&quot;nofollow&quot; target=&quot;_NEW&quot;&gt;\nhttp://1337x.org/torrent/605949/Elysium-2013-CAM-XviD-TANGiNA/&lt;/a&gt;","torrent":{"xt":"urn:btih:9876bc4f5b640a660747fe4196e401b5d76c4029","amp;dn":"Elysium+%282013%29+CAM+XviD+-+TANGiNA","amp;tr":["udp%3A%2F%2Ftracker.openbittorrent.com%3A80","udp%3A%2F%2Fopen.demonii.com%3A1337","udp%3A%2F%2Ftracker.coppersurfer.tk%3A6969","udp%3A%2F%2Fexodus.desync.com%3A6969"],"infoHash":"9876bc4f5b640a660747fe4196e401b5d76c4029","infoHashBuffer":{"type":"Buffer","data":[152,118,188,79,91,100,10,102,7,71,254,65,150,228,1,181,215,108,64,41]},"announce":[],"urlList":[]}}